<svg width="1024" height="1024" viewBox="0 0 1024 1024" fill="none" xmlns="http://www.w3.org/2000/svg"> <path d="M571.5 269.085V766.017C571.5 792.832 540.496 807.755 519.538 791.027L419.257 710.99C413.588 706.465 406.549 704 399.295 704H252C181.308 704 124 646.692 124 576V480.5C124 409.808 181.308 352.5 252 352.5H397.274C405.744 352.5 413.868 349.142 419.867 343.163L516.908 246.423C537.081 226.312 571.5 240.6 571.5 269.085Z" fill="black"/> <path d="M683.5 326C743.007 374.595 781 448.541 781 531.361C781 614.181 743.007 688.127 683.5 736.722" stroke="black" stroke-width="48" stroke-linecap="round" stroke-linejoin="round"/> <path d="M624.5 435C654.406 459.255 673.5 496.163 673.5 537.5C673.5 578.837 654.406 615.745 624.5 640" stroke="black" stroke-width="48" stroke-linecap="round" stroke-linejoin="round"/> <path d="M781.5 281C854.129 340.158 900.5 430.178 900.5 531C900.5 631.822 854.129 721.842 781.5 781" stroke="black" stroke-width="48" stroke-linecap="round" stroke-linejoin="round"/> </svg>
